<?xml version="1.0" encoding="utf-8"?>
<!-- Generator: Adobe Illustrator 21.0.0, SVG Export Plug-In . SVG Version: 6.00 Build 0)  -->
<svg version="1.1" id="Layer_1" xmlns="http://www.w3.org/2000/svg" xmlns:xlink="http://www.w3.org/1999/xlink" x="0px" y="0px"
	 viewBox="0 0 30 30" style="enable-background:new 0 0 30 30;" xml:space="preserve">
<path d="M15,0C6.7,0,0,6.7,0,15s6.7,15,15,15s15-6.7,15-15S23.3,0,15,0z M15,28C7.8,28,2,22.2,2,15S7.8,2,15,2s13,5.8,13,13
	S22.2,28,15,28z"/>
<path d="M22,9.4L20.6,8L15,13.6L9.4,8L8,9.4l5.6,5.6L8,20.6L9.4,22l5.6-5.6l5.6,5.6l1.4-1.4L16.4,15L22,9.4z"/>
</svg>
